<svg 
          width="7.243242263793945" 
          height="9.999988555908203" fill="none" 
          xmlns="http://www.w3.org/2000/svg">
          <path d="M 3.6216211318969727 0 C 1.6246484220027924 0 0 1.6246483504605396 0 3.621601635055818 C 0 6.099883012766361 3.2409960497170687 9.738144966395193 3.3789843320846558 9.891816849318895 C 3.508593710139394 10.036172320928994 3.7348829302936792 10.035918414443369 3.8642579317092896 9.891816849318895 C 4.002246214076877 9.738144966395193 7.243242263793945 6.099883012766361 7.243242263793945 3.621601635055818 C 7.24320320129209 1.6246483504605396 5.618574321269989 0 3.6216211318969727 0 Z M 3.6216211318969727 5.443730613886682 C 2.616894543170929 5.443730613886682 1.7995116114616394 4.6263282716910155 1.7995116114616394 3.621601635055818 C 1.7995116114616394 2.61687499842062 2.616914063692093 1.7994923257586664 3.6216211318969727 1.7994923257586664 C 4.626328200101852 1.7994923257586664 5.443710684776306 2.616894667954334 5.443710684776306 3.6216213045895316 C 5.443710684776306 4.626347941224729 4.626328200101852 5.443730613886682 3.6216211318969727 5.443730613886682 Z" fill="rgb(110.00000104308128,109.00000110268593,122.00000032782555)"/>
        </svg>